<svg id="Capa_1" data-name="Capa 1" xmlns="http://www.w3.org/2000/svg" viewBox="0 0 46 57"><defs><style>.cls-1{fill:#fff;}</style></defs><title>android</title><path class="cls-1" d="M35.36,5.68l2.5-4.16a1,1,0,1,0-1.72-1L33.51,4.88a14.72,14.72,0,0,0-10,0L20.86.49a1,1,0,0,0-1.72,1l2.5,4.16A15,15,0,0,0,13.5,19a1,1,0,0,0,1,1h28a1,1,0,0,0,1-1A15,15,0,0,0,35.36,5.68ZM15.54,18a13,13,0,0,1,25.92,0Z" transform="translate(-5.5 0)"/><path class="cls-1" d="M35.48,11.36H34.16a.66.66,0,0,0-.66.66v1.32a.66.66,0,0,0,.66.66h1.32a.66.66,0,0,0,.66-.66V12A.66.66,0,0,0,35.48,11.36Z" transform="translate(-5.5 0)"/><path class="cls-1" d="M22.84,11.36H21.52a.66.66,0,0,0-.66.66v1.32a.66.66,0,0,0,.66.66h1.32a.66.66,0,0,0,.66-.66V12A.66.66,0,0,0,22.84,11.36Z" transform="translate(-5.5 0)"/><path class="cls-1" d="M42.5,21h-28a1,1,0,0,0-1,1V42.17A4.84,4.84,0,0,0,18.33,47H19.5v6a4,4,0,0,0,8,0V47h2v6a4,4,0,0,0,8,0V47h1.17a4.84,4.84,0,0,0,4.83-4.83V22A1,1,0,0,0,42.5,21Zm-1,21.17A2.83,2.83,0,0,1,38.67,45H36.5a1,1,0,0,0-1,1v7a2,2,0,0,1-4,0V46a1,1,0,0,0-1-1h-4a1,1,0,0,0-1,1v7a2,2,0,0,1-4,0V46a1,1,0,0,0-1-1H18.33a2.84,2.84,0,0,1-2.84-2.83V23h26Z" transform="translate(-5.5 0)"/><path class="cls-1" d="M48,21a3.51,3.51,0,0,0-3.5,3.5v14a3.5,3.5,0,1,0,7,0v-14A3.51,3.51,0,0,0,48,21Zm1.5,17.5a1.5,1.5,0,1,1-3,0v-14a1.5,1.5,0,1,1,3,0Z" transform="translate(-5.5 0)"/><path class="cls-1" d="M9,21a3.51,3.51,0,0,0-3.5,3.5v14a3.5,3.5,0,1,0,7,0v-14A3.51,3.51,0,0,0,9,21Zm1.5,17.5a1.5,1.5,0,1,1-3,0v-14a1.5,1.5,0,1,1,3,0Z" transform="translate(-5.5 0)"/></svg>