<svg id="Layer_1" data-name="Layer 1" xmlns="http://www.w3.org/2000/svg" viewBox="0 0 512 298.67"><defs><style>.cls-1{fill:#fff;}</style></defs><title>designing</title><path class="cls-1" d="M501.33,320H468.8C464,241.06,407,174.3,325.6,149.33h103a32,32,0,1,0,0-21.33h-130V117.33A10.66,10.66,0,0,0,288,106.66H224a10.66,10.66,0,0,0-10.67,10.67V128h-130a32,32,0,1,0,0,21.33h103C105,174.3,48,241.06,43.2,320H10.67A10.66,10.66,0,0,0,0,330.67v64a10.66,10.66,0,0,0,10.67,10.67h64a10.66,10.66,0,0,0,10.67-10.67v-64A10.66,10.66,0,0,0,74.67,320H64.54c5.22-75.78,65.48-138.7,148.8-155.4v16.73A10.66,10.66,0,0,0,224,192h64a10.66,10.66,0,0,0,10.67-10.67V164.6C382,181.3,442.24,244.22,447.46,320H437.33a10.66,10.66,0,0,0-10.67,10.67v64a10.66,10.66,0,0,0,10.67,10.67h64A10.66,10.66,0,0,0,512,394.67v-64A10.66,10.66,0,0,0,501.33,320ZM458.67,128A10.67,10.67,0,1,1,448,138.67,10.67,10.67,0,0,1,458.67,128ZM53.33,149.33A10.67,10.67,0,1,1,64,138.67,10.67,10.67,0,0,1,53.33,149.33ZM64,384H21.33V341.33H64ZM277.33,170.67H234.67V128h42.67ZM490.67,384H448V341.33h42.67Z" transform="translate(0 -106.66)"/></svg>