<svg id="Layer_1" data-name="Layer 1" xmlns="http://www.w3.org/2000/svg" viewBox="0 0 300 300"><defs><style>.cls-1{fill:#fff;}</style></defs><title>dribbble-logo</title><path class="cls-1" d="M.59,159.37q0-8.79,0-17.58a19.58,19.58,0,0,0,.5-2.53A135.56,135.56,0,0,1,11.76,93.95C33.47,44.06,71,13.61,124.46,3,130.17,1.82,136,1.36,141.8.59h17.58a15.84,15.84,0,0,0,2.26.48,141,141,0,0,1,59.62,17.29c42.17,23.43,68,58.9,77,106.42,1.06,5.62,1.57,11.35,2.33,17v17.58a20.2,20.2,0,0,0-.5,2.53,141.4,141.4,0,0,1-17.25,59.34c-23.43,42.17-58.9,68-106.41,77-5.63,1.07-11.37,1.57-17.05,2.33H141.8a15.65,15.65,0,0,0-2.26-.48A138.36,138.36,0,0,1,87,286.36c-46-22.68-74.16-59.23-84-109.67C1.84,171,1.36,165.15.59,159.37ZM169,174.6c-29.4,6.65-77.15,44.87-87.61,70,33.56,25.92,79.39,28.37,110.53,15A577.61,577.61,0,0,0,169,174.6ZM152.6,133.82A326.43,326.43,0,0,1,94,146.21a413.49,413.49,0,0,1-60,2.69C30.35,168.44,45,209.27,61.36,225.64A203,203,0,0,1,104,179.35a186.17,186.17,0,0,1,55.36-30Zm-53.72-88a117.34,117.34,0,0,0-47,42.14A108.51,108.51,0,0,0,37.24,122C58.37,125,125,116.56,140.42,109.08,128.59,86.7,115.14,65.41,98.88,45.79Zm26.74-9.53a438.08,438.08,0,0,1,40.48,64c22.12-9.62,41.67-22.39,57.44-41.11C194.36,37,162.09,29.18,125.62,36.27Zm91.92,210c25.44-18.19,41.44-43,47.94-74-16.66-5.54-57.31-7.66-69.31-3.94ZM177.75,124.47c2.3,5.35,4.59,10.29,6.53,15.38.87,2.27,2,2.86,4.31,2.47,24.34-4.06,48.58-3,72.74,1.64,1.87.36,3.77.61,6,1a116,116,0,0,0-24.94-66.58C224.35,98.84,202.55,113.45,177.75,124.47Z" transform="translate(-0.59 -0.59)"/></svg>