<svg id="Layer_1" data-name="Layer 1" xmlns="http://www.w3.org/2000/svg" viewBox="0 0 300 300"><defs><style>.cls-1{fill:#fff;}</style></defs><title>facebook-logo</title><path class="cls-1" d="M.59,255.47q0-104.88,0-209.77a7.15,7.15,0,0,0,.51-1.33C4.14,26.55,14,13.71,30,5.71,34.87,3.27,40.45,2.25,45.7.59H255.47a7.21,7.21,0,0,0,1.34.51c17.7,3,30.51,12.81,38.52,28.65,2.5,4.94,3.55,10.62,5.27,16V255.47a7.15,7.15,0,0,0-.51,1.33c-3,17.82-12.94,30.66-28.9,38.66-4.87,2.44-10.45,3.46-15.7,5.12h-58a14.24,14.24,0,0,1-.14-1.45q0-54.77,0-109.54a21.78,21.78,0,0,1,.28-2.41H247V137.07H197.45c0-7.54-.26-14.77.07-22s5.06-11.24,12.26-11.24H244c1,0,2-.09,3-.13V54.09c-14.66,0-29.1-.1-43.54.08a33.78,33.78,0,0,0-9.76,1.7c-22,7.09-34.52,23-40.82,44.56-2.5,8.54-2.44,17.35-2.33,26.14,0,3.48,0,7,0,10.68h-36.4a19.2,19.2,0,0,0-.27,2.2c0,15.13,0,30.26,0,45.4,0,2,.7,2.47,2.56,2.46,8.69-.08,17.38,0,26.07,0h8.1V300.59H45.7a7.14,7.14,0,0,0-1.33-.51c-17.71-3-30.51-12.81-38.52-28.65C3.35,266.48,2.3,260.81.59,255.47Z" transform="translate(-0.59 -0.59)"/></svg>