<svg id="Layer_1" data-name="Layer 1" xmlns="http://www.w3.org/2000/svg" viewBox="0 0 512 477.86"><defs><style>.cls-1{fill:#fff;}</style></defs><title>graduation</title><path class="cls-1" d="M360.46,444a8.51,8.51,0,0,0-10.34,6.2l-8.53,34.13a8.53,8.53,0,0,0,6.21,10.35,8.27,8.27,0,0,0,2.07.26,8.54,8.54,0,0,0,8.27-6.46l8.53-34.13A8.54,8.54,0,0,0,360.46,444Z" transform="translate(0 -17.07)"/><path class="cls-1" d="M256,273.07a8.45,8.45,0,0,0,3.26-.65l93.87-38.84a8.54,8.54,0,0,0-6.54-15.77L256,255.3,17.07,156.43V153.6A8.53,8.53,0,0,0,0,153.6v8.53A8.52,8.52,0,0,0,5.27,170l247.47,102.4A8.45,8.45,0,0,0,256,273.07Z" transform="translate(0 -17.07)"/><path class="cls-1" d="M357.51,360.49a8.52,8.52,0,0,0-11.43-3.87c-16.2,8-43.27,17.33-81.55,18.6V298.67a8.53,8.53,0,0,0-17.07,0v76.48c-106-3.38-140.15-67.57-145.07-78.25v-58a8.53,8.53,0,1,0-17.07,0v59.73a8.63,8.63,0,0,0,.61,3.17c1.49,3.7,37.8,90.69,170.06,90.69,46.23,0,78.62-11.21,97.65-20.62A8.51,8.51,0,0,0,357.51,360.49Z" transform="translate(0 -17.07)"/><path class="cls-1" d="M384,452.27a8.53,8.53,0,0,0-8.53,8.53v25.6a8.53,8.53,0,0,0,17.07,0V460.8A8.53,8.53,0,0,0,384,452.27Z" transform="translate(0 -17.07)"/><path class="cls-1" d="M503.47,145.07a8.53,8.53,0,0,0-8.53,8.53v2.82l-102.4,42.15V183.14l114.19-47.26a8.53,8.53,0,0,0,0-15.77L259.26,17.71a8.54,8.54,0,0,0-6.52,0L5.27,120.11a8.53,8.53,0,0,0,0,15.77l247.47,102.4a8.51,8.51,0,0,0,6.52,0l89.48-37a8.53,8.53,0,1,0-6.52-15.76L256,221.17,30.85,128,256,34.83,481.15,128l-98,40.54-93.84-35a20.38,20.38,0,0,0,.79-5.5c0-14.35-15-25.6-34.13-25.6s-34.13,11.25-34.13,25.6,15,25.6,34.13,25.6a41.25,41.25,0,0,0,22.08-6.08l97.38,36.36v27.34h0V394.1a25.6,25.6,0,1,0,17.07,0V345.67c24.5-18.49,33.28-43.12,33.66-44.21a8.63,8.63,0,0,0,.47-2.79V238.93a8.53,8.53,0,1,0-17.07,0v58.15a87.29,87.29,0,0,1-17.07,25.78V217l114.18-47a8.53,8.53,0,0,0,5.28-7.89V153.6A8.53,8.53,0,0,0,503.47,145.07ZM256,136.53c-10.42,0-17.07-5.05-17.07-8.53s6.65-8.53,17.07-8.53,17.07,5.05,17.07,8.53S266.42,136.53,256,136.53ZM384,426.67a8.53,8.53,0,1,1,8.53-8.53A8.54,8.54,0,0,1,384,426.67Z" transform="translate(0 -17.07)"/><path class="cls-1" d="M417.88,450.19a8.53,8.53,0,0,0-16.55,4.15l8.53,34.13a8.54,8.54,0,0,0,8.27,6.46,8.28,8.28,0,0,0,2.07-.26,8.53,8.53,0,0,0,6.21-10.35Z" transform="translate(0 -17.07)"/></svg>