<svg id="Layer_1" data-name="Layer 1" xmlns="http://www.w3.org/2000/svg" viewBox="0 0 512 512"><defs><style>.cls-1{fill:#fff;}</style></defs><title>highschool</title><path class="cls-1" d="M256,221.87c10.76,0,20.13-4,25.6-7,5.47,3,14.84,7,25.6,7,15.89,0,33.65-9,41.23-20.86.75-1.13,18.5-28.26,18.5-73A59.8,59.8,0,0,0,307.2,68.27c-9.65,0-18.45,3.54-25.6,7.31-7.15-3.76-15.95-7.31-25.6-7.31A59.8,59.8,0,0,0,196.27,128c0,50.56,15.73,70.2,19.15,73.86C223.13,211.58,239,221.87,256,221.87Zm0-136.53c7.61,0,15.39,3.94,21.33,7.38a8.51,8.51,0,0,0,8.55,0c5.93-3.44,13.71-7.38,21.33-7.38A42.72,42.72,0,0,1,349.87,128c0,39.27-15.49,63.32-15.72,63.66-4,6.21-16,13.14-26.95,13.14S286.76,198,286.7,198a8.52,8.52,0,0,0-10.19,0c-.09.07-9.51,6.84-20.51,6.84s-22.22-7.09-27.38-13.76c-.17-.22-.46-.55-.66-.75s-14.63-16-14.63-62.29A42.71,42.71,0,0,1,256,85.33Z" transform="translate(0 0)"/><path class="cls-1" d="M274.29,55.6a8.53,8.53,0,1,0,14.63-8.79L263.31,4.14a8.53,8.53,0,0,0-14.63,8.79Z" transform="translate(0 0)"/><path class="cls-1" d="M300.93,54.37a45.16,45.16,0,0,0,13.24,1.95h0c10.21,0,19.08-3.48,25.64-10.05,15.62-15.62,8.41-38,8.1-38.9A8.56,8.56,0,0,0,342.53,2,45.34,45.34,0,0,0,329.27,0c-10.21,0-19.07,3.47-25.64,10-15.62,15.63-8.4,38-8.1,38.9A8.54,8.54,0,0,0,300.93,54.37Zm14.76-32.24c3.35-3.34,7.91-5,13.58-5a28.7,28.7,0,0,1,3.35.2c.52,4.6.28,11.78-4.86,16.91-3.35,3.35-7.92,5.05-13.58,5.05a30.58,30.58,0,0,1-3.35-.2C310.32,34.44,310.55,27.26,315.69,22.13Z" transform="translate(0 0)"/><path class="cls-1" d="M486.4,238.93H76.8a25.63,25.63,0,0,0-25.6,25.6v34.13a8.53,8.53,0,0,0,17.07,0V264.54A8.55,8.55,0,0,1,76.8,256h25.6v42.67a8.53,8.53,0,0,0,17.07,0V256H341.33v42.67a8.53,8.53,0,0,0,17.07,0V256h85.33v42.67a8.53,8.53,0,0,0,17.07,0V256h25.6a8.55,8.55,0,0,1,8.53,8.53v59.73h-25.6a8.54,8.54,0,0,0-8.53,8.53v76.8h-8.53a8.53,8.53,0,0,0,0,17.07h25.6V486.4a8.55,8.55,0,0,1-8.53,8.53H204.8V452.27a8.53,8.53,0,0,0-17.07,0v42.67H170.67V452.27a8.53,8.53,0,0,0-17.07,0v42.67H136.53V452.27a8.53,8.53,0,0,0-17.07,0v42.67H42.67a8.55,8.55,0,0,1-8.53-8.53V452.27a8.53,8.53,0,0,0-17.07,0V486.4A25.63,25.63,0,0,0,42.67,512H469.34a25.63,25.63,0,0,0,25.6-25.6V426.67c0-11.08-8.79-17.07-17.07-17.07V341.33h17.07c8.28,0,17.07-6,17.07-17.07V264.53A25.64,25.64,0,0,0,486.4,238.93Z" transform="translate(0 0)"/><path class="cls-1" d="M332.8,426.67a8.53,8.53,0,1,0,0-17.07H238.93V341.34H358.4v128a8.53,8.53,0,0,0,13.27,7.1l20.86-13.91,20.86,13.91a8.53,8.53,0,0,0,13.27-7.1v-128h8.53a8.53,8.53,0,0,0,0-17.07H25.6A25.33,25.33,0,0,0,0,349.87v51.2a25.63,25.63,0,0,0,25.6,25.6H332.8Zm42.67-85.33H409.6V453.39l-12.33-8.22a8.54,8.54,0,0,0-9.47,0l-12.33,8.22V341.33Zm-273.07,0H221.87V409.6H102.4ZM17.07,401.07v-51.2a8.35,8.35,0,0,1,8.53-8.53H85.33V409.6H25.6A8.44,8.44,0,0,1,17.07,401.07Z" transform="translate(0 0)"/><path class="cls-1" d="M179.2,358.4a8.54,8.54,0,0,0-8.53,8.53V384a8.53,8.53,0,0,0,17.07,0V366.93A8.54,8.54,0,0,0,179.2,358.4Z" transform="translate(0 0)"/><path class="cls-1" d="M145.07,358.4a8.54,8.54,0,0,0-8.53,8.53V384a8.53,8.53,0,0,0,17.07,0V366.93A8.54,8.54,0,0,0,145.07,358.4Z" transform="translate(0 0)"/></svg>