<svg id="Layer_1" data-name="Layer 1" xmlns="http://www.w3.org/2000/svg" viewBox="0 0 300.01 299.72"><defs><style>.cls-1{fill:#fff;}</style></defs><title>insta-logo</title><path class="cls-1" d="M0,150.14c.36-20.24.55-40.48,1.12-60.71C1.62,72,4.74,55,14,39.86,26.19,20,44.1,7.83,66.86,3.91A266.89,266.89,0,0,1,108,.56C137.83.1,167.72.27,197.59.6c15.62.17,31.3.7,46.32,5.9C273,16.57,290.7,37,296.38,67c2.56,13.55,3.15,27.59,3.37,41.43.45,29.65.27,59.31,0,89-.17,15.62-.69,31.3-5.84,46.33-10,29.16-30.45,46.85-60.41,52.6-13.54,2.6-27.59,3.18-41.43,3.39-29.76.45-59.53.28-89.29,0-15.62-.17-31.3-.71-46.33-5.9C27.27,283.71,9.61,263.24,3.93,233.26,1.37,219.72,1.08,205.68.54,191.83S.42,164,.42,150.14Zm273.48-2.35h-.61c0-11.82.33-23.65-.09-35.46-.45-12.77-.71-25.65-2.64-38.24-3.2-20.81-14.87-35.57-35.42-41.85a88.35,88.35,0,0,0-23.2-3.78q-41-1.09-82.05-1c-17.15.06-34.37.48-51.44,2C52.86,31.7,35.37,47.11,30.72,71.84,28.2,85.28,27.84,99.22,27.57,113c-.47,24.73-.33,49.47,0,74.2.13,11.69.7,23.41,1.88,35,2.55,25.14,17.56,42.56,42.37,47.35,13.2,2.55,26.94,2.93,40.45,3.18,25.27.47,50.57.32,75.85.05,11.36-.12,22.74-.77,34-1.89,10.68-1.06,20.68-4.53,29.27-11.33,13.93-11,19.33-26.29,20.16-43.21C272.66,193.51,272.88,170.64,273.48,147.78Z" transform="translate(0 -0.28)"/><path class="cls-1" d="M150.19,227.09c-42.89,0-77-34.21-77-77.25,0-42.69,34.39-76.66,77.57-76.64,42.36,0,76.34,34.55,76.31,77.56C227.08,192.88,192.61,227.08,150.19,227.09Zm.12-126.87a49.92,49.92,0,0,0-.29,99.84c27.33.12,50-22.38,50.07-49.78A50.16,50.16,0,0,0,150.3,100.22Z" transform="translate(0 -0.28)"/><path class="cls-1" d="M248.11,70.16A18,18,0,0,1,230,88.28a18.28,18.28,0,0,1-18-18,18,18,0,0,1,18.05-18.13A17.67,17.67,0,0,1,248.11,70.16Z" transform="translate(0 -0.28)"/></svg>