<svg id="Capa_1" data-name="Capa 1" xmlns="http://www.w3.org/2000/svg" viewBox="0 0 249.07 285.76"><defs><style>.cls-1{fill:#fff;}</style></defs><title>nodeweb</title><path class="cls-1" d="M267.41,74.39a6,6,0,0,0,0-.73V73.6a6.16,6.16,0,0,0-.13-.65l0-.18q-.08-.26-.18-.52l-.07-.17a6.05,6.05,0,0,0-.32-.64,5.85,5.85,0,0,0-.4-.59l-.12-.15c-.11-.14-.23-.28-.36-.41l-.13-.14a6.15,6.15,0,0,0-.49-.43l-.05,0a5.85,5.85,0,0,0-.6-.4l0,0L145.88.8l0,0a6,6,0,0,0-.66-.32l0,0a6.15,6.15,0,0,0-.63-.21l-.18,0-.55-.11-.18,0a5.48,5.48,0,0,0-1.43,0l-.18,0-.55.11-.18,0a5.92,5.92,0,0,0-.63.21l0,0a5.87,5.87,0,0,0-.66.32l0,0L21.34,69.24l-.05,0a5.93,5.93,0,0,0-.61.41l0,0a6,6,0,0,0-.51.45l-.13.13q-.19.2-.36.41l-.12.15a6,6,0,0,0-.38.57l0,0h0a6.14,6.14,0,0,0-.31.64l-.06.16q-.1.27-.18.54l0,.17a5.78,5.78,0,0,0-.13.64v.06a6.06,6.06,0,0,0,0,.74s0,0,0,0V211.32s0,0,0,.05a6,6,0,0,0,0,.73v.05a6.17,6.17,0,0,0,.13.65l0,.18q.08.26.18.52l.07.17a6.05,6.05,0,0,0,.32.64v0a6,6,0,0,0,.43.64c.09.12.19.22.29.33s.15.18.23.26.26.23.39.35l.2.17c.15.12.31.22.47.32l.17.11,0,0h0l83.49,48.2a6,6,0,0,0,6-10.39l-74.54-43,24.08-13.9,76.46,44.14v38.2s0,0,0,.06,0,.26,0,.39,0,.14,0,.21,0,.23.05.35,0,.16,0,.24,0,.19.07.29.05.2.08.29l.09.23c0,.11.08.22.13.33l.09.2c.06.11.11.23.17.34l0,.06.06.09q.15.25.33.49l.12.16a6.19,6.19,0,0,0,.46.51l.14.13.39.34.2.15.43.28.15.09a6,6,0,0,0,.64.31l.09,0a6.06,6.06,0,0,0,.58.19l.18,0,.53.1.19,0a6,6,0,0,0,.66,0H143l.59,0,.24,0,.48-.09.22-.06a5.84,5.84,0,0,0,.57-.19l.09,0a5.87,5.87,0,0,0,.66-.32l0,0,118.54-68.44a6,6,0,0,0,3-5.2V74.44A.24.24,0,0,0,267.41,74.39Zm-201,105.7V105.51l24.11,13.84v46.81ZM30.34,84.8,54.42,98.62V187l-24.08,13.9Zm106.54,47.31L108.77,116l28.1-16.22Zm12-32.36,28.34,16.36-28.34,16.36Zm40.34,9.43L148.88,85.9V58.06l64.46,37.21Zm-52.34-65-45,26a6,6,0,0,0,6,10.39l39-22.52V85.9L96.74,109.08,36.37,74.42l100.51-58Zm-34.34,82,28.66,16.45-28.66,16.55Zm34.34,27V186l-28.34-16.36Zm12-.43,28.8,16.53L148.88,186Zm0,47,40.83-23.57,24.18,13.88-65,37.54V199.85Zm46.34-34.25V140.88a6,6,0,0,0-12,0v17.84l-28-16.05,64.08-37v73.78Zm30.11-77.26L148.88,44.2V16.39l100.54,58ZM72.42,190.48l24.11-13.92,40.34,23.29V227.7Zm76.46,78.88V241.55l77.05-44.49,14,8a6,6,0,1,0,6-10.41l-14.53-8.34V98.74l24.08-13.9v123Z" transform="translate(-18.34)"/></svg>