<svg id="Layer_1" data-name="Layer 1" xmlns="http://www.w3.org/2000/svg" viewBox="0 0 512 512"><defs><style>.cls-1{fill:#fff;}</style></defs><title>preuniversity</title><path class="cls-1" d="M281.6,119.47a8.54,8.54,0,0,0-8.53,8.53v51.2a8.54,8.54,0,0,0,8.53,8.53h34.13a8.54,8.54,0,0,0,8.53-8.53V128a8.54,8.54,0,0,0-8.53-8.53Zm25.6,51.2H290.13V136.53H307.2Z"/><path class="cls-1" d="M59.73,221.87a8.54,8.54,0,0,0,8.53-8.53v-128H443.73v128a8.53,8.53,0,1,0,17.07,0V76.8a8.54,8.54,0,0,0-8.53-8.53H256V17.07h42.67V34.13h-25.6a8.53,8.53,0,0,0,0,17.07H307.2a8.54,8.54,0,0,0,8.53-8.53V8.53A8.54,8.54,0,0,0,307.2,0H247.47a8.54,8.54,0,0,0-8.53,8.53V68.27H59.73A8.54,8.54,0,0,0,51.2,76.8V213.33A8.54,8.54,0,0,0,59.73,221.87Z"/><path class="cls-1" d="M366.93,119.47A8.54,8.54,0,0,0,358.4,128v51.2a8.54,8.54,0,0,0,8.53,8.53h34.13a8.54,8.54,0,0,0,8.53-8.53V128a8.54,8.54,0,0,0-8.53-8.53Zm25.6,51.2H375.47V136.53h17.07Z"/><path class="cls-1" d="M503.47,494.93H8.53a8.53,8.53,0,0,0,0,17.07H503.47a8.53,8.53,0,0,0,0-17.07Z"/><path class="cls-1" d="M315.73,443.73a8.54,8.54,0,0,0,8.53-8.53V315.73a8.51,8.51,0,0,0-2.5-6c-.8-.8-20.1-19.57-65.77-19.57s-65,18.76-65.77,19.57a8.51,8.51,0,0,0-2.5,6V435.2a8.53,8.53,0,0,0,17.07,0V319.86c5.22-3.58,18.75-10.88,42.67-12.35v85a8.53,8.53,0,1,0,0,17.07v25.6a8.53,8.53,0,1,0,17.07,0V409.6a8.53,8.53,0,1,0,0-17.07v-85c24,1.48,37.49,8.79,42.67,12.34V435.2A8.54,8.54,0,0,0,315.73,443.73Z"/><path class="cls-1" d="M153.6,469.33a8.54,8.54,0,0,0,8.53,8.53H349.87a8.53,8.53,0,1,0,0-17.07H162.13A8.54,8.54,0,0,0,153.6,469.33Z"/><path class="cls-1" d="M42.67,460.8a8.53,8.53,0,1,0,0,17.07H128a8.53,8.53,0,1,0,0-17.07h-8.53V256H392.53V460.8H384a8.53,8.53,0,1,0,0,17.07h85.33a8.53,8.53,0,0,0,0-17.07H460.8V256h8.53a8.53,8.53,0,0,0,0-17.07H42.67a8.53,8.53,0,0,0,0,17.07H51.2V460.8ZM409.6,256h34.13V460.8H409.6ZM68.27,256H102.4V460.8H68.27Z"/><path class="cls-1" d="M110.93,119.47A8.54,8.54,0,0,0,102.4,128v51.2a8.54,8.54,0,0,0,8.53,8.53h34.13a8.54,8.54,0,0,0,8.53-8.53V128a8.54,8.54,0,0,0-8.53-8.53Zm25.6,51.2H119.47V136.53h17.07Z"/><path class="cls-1" d="M196.27,119.47a8.54,8.54,0,0,0-8.53,8.53v51.2a8.54,8.54,0,0,0,8.53,8.53H230.4a8.54,8.54,0,0,0,8.53-8.53V128a8.54,8.54,0,0,0-8.53-8.53Zm25.6,51.2H204.8V136.53h17.07Z"/></svg>