<svg id="Layer_1" data-name="Layer 1" xmlns="http://www.w3.org/2000/svg" viewBox="0 0 266.73 300"><defs><style>.cls-1{fill:#fff;}</style></defs><title>quora-logo</title><path class="cls-1" d="M142.38.59h16.41a20.63,20.63,0,0,0,2.55.5,124.94,124.94,0,0,1,41.79,10.46,135.18,135.18,0,0,1,78.35,149.58c-7.15,37-26.56,66.21-57.73,87.52-1,.69-2,1.42-3,2.14a33.83,33.83,0,0,0,9.61,12.37A67.17,67.17,0,0,0,252.67,275c.84.27,2.09,1.17,2.1,1.81.15,7.2.09,14.4.09,21.76l-12.88,2H229.1c-.94-.2-1.87-.47-2.83-.6a55,55,0,0,1-20.16-6.57c-10-5.7-17.06-14.13-22.61-24-1-1.77-1.92-2.35-4.11-1.85a127.69,127.69,0,0,1-55.75.51A134.09,134.09,0,0,1,18.9,156.75c-5.45-37,2.44-71.1,24.6-101.37C64.27,27,92.13,9.38,126.8,2.84,132,1.87,137.19,1.33,142.38.59ZM200.84,211.7c9.73-12.77,15.76-26.93,17.53-42.45a289.54,289.54,0,0,0,.12-64.59c-2.34-21.23-11.27-39.57-27.16-54.27-22.46-20.79-56.07-21.1-78.78-.58C94,66.58,85.24,88,83.89,112.5c-.74,13.34-.37,26.74-.37,40.12,0,16.45,3.16,32.23,11,46.8C105,218.87,120,232.87,142.47,237.05a49.17,49.17,0,0,0,24.76-1.64c-7.69-12.85-18.21-21.4-32.91-24V185C160.51,184,182.37,193.13,200.84,211.7Z" transform="translate(-17.24 -0.59)"/></svg>