<svg id="Layer_1" data-name="Layer 1" xmlns="http://www.w3.org/2000/svg" viewBox="0 0 512 512"><defs><style>.cls-1{fill:#fff;}</style></defs><title>university</title><path class="cls-1" d="M187.73,315.73a8.54,8.54,0,0,0,8.53,8.53H230.4a8.54,8.54,0,0,0,8.53-8.53v-51.2A8.54,8.54,0,0,0,230.4,256H196.27a8.54,8.54,0,0,0-8.53,8.53v51.2Zm17.07-42.67h17.07V307.2H204.8Z"/><path class="cls-1" d="M196.27,221.87H230.4a8.54,8.54,0,0,0,8.53-8.53v-51.2a8.54,8.54,0,0,0-8.53-8.53H196.27a8.54,8.54,0,0,0-8.53,8.53v51.2A8.54,8.54,0,0,0,196.27,221.87Zm8.53-51.2h17.07V204.8H204.8Z"/><path class="cls-1" d="M132.4,160.91,256,86.75l123.61,74.16a8.53,8.53,0,0,0,8.79-14.63L264.53,72V17.07H307.2V34.13H281.6a8.53,8.53,0,0,0,0,17.07h34.13a8.54,8.54,0,0,0,8.53-8.53V8.53A8.54,8.54,0,0,0,315.73,0H256a8.54,8.54,0,0,0-8.53,8.53V72L123.61,146.29a8.53,8.53,0,0,0,8.79,14.63Z"/><path class="cls-1" d="M93.87,324.27a8.54,8.54,0,0,0,8.53-8.53v-51.2A8.54,8.54,0,0,0,93.87,256H59.73a8.54,8.54,0,0,0-8.53,8.53V281.6a8.53,8.53,0,0,0,17.07,0v-8.53H85.33v42.67A8.54,8.54,0,0,0,93.87,324.27Z"/><path class="cls-1" d="M153.6,435.2V187.73a8.53,8.53,0,1,0-17.07,0V435.2a8.53,8.53,0,0,0,17.07,0Z"/><path class="cls-1" d="M110.93,477.87H401.07a8.53,8.53,0,0,0,0-17.07h-76.8V375.47h8.53a8.53,8.53,0,0,0,0-17.07H179.2a8.53,8.53,0,1,0,0,17.07h8.53V460.8h-76.8a8.53,8.53,0,0,0,0,17.07Zm153.6-51.2a8.53,8.53,0,1,0,0-17.07V375.47H307.2V460.8H264.53V426.67Zm-59.73-51.2h42.67V409.6a8.53,8.53,0,1,0,0,17.07V460.8H204.8Z"/><path class="cls-1" d="M452.27,366.93H418.13a8.54,8.54,0,0,0-8.53,8.53v51.2a8.54,8.54,0,0,0,8.53,8.53h34.13a8.54,8.54,0,0,0,8.53-8.53v-51.2A8.54,8.54,0,0,0,452.27,366.93Zm-8.53,51.2H426.67V384h17.07Z"/><path class="cls-1" d="M452.27,264.53H418.13a8.54,8.54,0,0,0-8.53,8.53v51.2a8.54,8.54,0,0,0,8.53,8.53h34.13a8.54,8.54,0,0,0,8.53-8.53v-51.2A8.54,8.54,0,0,0,452.27,264.53Zm-8.53,51.2H426.67V281.6h17.07Z"/><path class="cls-1" d="M435.2,494.93H76.8a8.53,8.53,0,0,0,0,17.07H435.2a8.53,8.53,0,0,0,0-17.07Z"/><path class="cls-1" d="M503.47,187.73a8.54,8.54,0,0,0-8.53,8.53v8.53H401.07a8.53,8.53,0,0,0,0,17.07h93.87v281.6a8.53,8.53,0,1,0,17.07,0V196.27A8.54,8.54,0,0,0,503.47,187.73Z"/><path class="cls-1" d="M273.07,315.73a8.54,8.54,0,0,0,8.53,8.53h34.13a8.54,8.54,0,0,0,8.53-8.53v-51.2a8.54,8.54,0,0,0-8.53-8.53H281.6a8.54,8.54,0,0,0-8.53,8.53v51.2Zm17.07-42.67H307.2V307.2H290.13V273.07Z"/><path class="cls-1" d="M85.33,418.13c0-1.11-.49-110.93-42.67-110.93S0,417,0,418.13a42.74,42.74,0,0,0,34.13,41.8v43.53a8.53,8.53,0,0,0,17.07,0V459.94A42.74,42.74,0,0,0,85.33,418.13Zm-42.67,25.6a25.63,25.63,0,0,1-25.6-25.6c0-42.51,11.42-93.87,25.6-93.87s25.6,51.35,25.6,93.87A25.63,25.63,0,0,1,42.67,443.73Z"/><path class="cls-1" d="M375.47,435.2v-256a8.53,8.53,0,1,0-17.07,0v256a8.53,8.53,0,0,0,17.07,0Z"/><path class="cls-1" d="M281.6,221.87h34.13a8.54,8.54,0,0,0,8.53-8.53v-51.2a8.54,8.54,0,0,0-8.53-8.53H281.6a8.54,8.54,0,0,0-8.53,8.53v51.2A8.54,8.54,0,0,0,281.6,221.87Zm8.53-51.2H307.2V204.8H290.13V170.67Z"/><path class="cls-1" d="M8.53,298.67a8.54,8.54,0,0,0,8.53-8.53V221.87h93.87a8.53,8.53,0,0,0,0-17.07H17.07v-8.53a8.53,8.53,0,0,0-17.07,0v93.87A8.54,8.54,0,0,0,8.53,298.67Z"/></svg>