<svg id="Layer_1" data-name="Layer 1" xmlns="http://www.w3.org/2000/svg" viewBox="0 0 308 308"><defs><style>.cls-1{fill:#fff;}</style></defs><title>whatsapp</title><g id="_Group_" data-name="&lt;Group&gt;"><path id="_Path_" data-name="&lt;Path&gt;" class="cls-1" d="M227.9,177c-.6-.29-23.05-11.35-27-12.78a15.53,15.53,0,0,0-5.23-1.16c-3,0-5.58,1.51-7.56,4.48-2.24,3.33-9,11.27-11.13,13.64-.27.31-.65.69-.87.69s-3.68-1.43-4.73-1.89C147.25,169.5,129,144.34,126.46,140.1a2.48,2.48,0,0,1-.38-.89,7.24,7.24,0,0,1,1.32-1.55c1.22-1.21,2.55-2.8,3.83-4.35.61-.73,1.21-1.46,1.81-2.15a24.19,24.19,0,0,0,3.65-5.79l.5-1a10.47,10.47,0,0,0-.3-9.86c-.53-1.06-10-23.94-11-26.35-2.42-5.8-5.63-8.5-10.08-8.5-.41,0,0,0-1.73.07-2.11.09-13.59,1.6-18.67,4.8-5.39,3.39-14.5,14.22-14.5,33.25,0,17.13,10.87,33.3,15.54,39.45.12.15.33.47.64.92,17.87,26.1,40.15,45.45,62.74,54.47,21.74,8.69,32,9.69,37.9,9.69h0a59.21,59.21,0,0,0,6.17-.36l1.1-.1c7.51-.67,24-9.22,27.77-19.65,3-8.22,3.74-17.2,1.77-20.46C233.17,179.51,230.85,178.39,227.9,177Z" transform="translate(0)"/><path id="_Compound_Path_" data-name="&lt;Compound Path&gt;" class="cls-1" d="M156.73,0C73.32,0,5.45,67.35,5.45,150.14a149,149,0,0,0,20.74,75.93l-26,76.64a4,4,0,0,0,5,5.1l79.92-25.4a152.3,152.3,0,0,0,71.6,17.85c83.41,0,151.27-67.35,151.27-150.13S240.14,0,156.73,0Zm0,269A119.84,119.84,0,0,1,90.8,249.34a4,4,0,0,0-3.41-.47l-40,12.73,12.92-38.13a4,4,0,0,0-.56-3.65,117.23,117.23,0,0,1-22.81-69.68c0-65.54,53.75-118.87,119.83-118.87S276.54,84.6,276.54,150.14,222.8,269,156.73,269Z" transform="translate(0)"/></g></svg>