<svg id="Layer_1" data-name="Layer 1" xmlns="http://www.w3.org/2000/svg" viewBox="0 0 299.24 300"><defs><style>.cls-1{fill:#fff;}</style></defs><title>quora-logo</title><path class="cls-1" d="M158.79.59c6.45,1,13,1.63,19.33,3C204,9,226.55,21,246.78,37.79c.19.16.3.42.16.22-4.92.81-10.09,1.13-14.94,2.57-21.29,6.29-31.14,31.41-19.58,50a30.93,30.93,0,0,0,9,9.45c14.37,9.34,19.55,23.56,22.45,39.38,2,11.17-.89,21.37-5.4,31.19-9.64,21-19.67,41.79-29.54,62.67a10.41,10.41,0,0,1-.77,1.09c-.95-3.2-1.81-6.11-2.66-9-10.55-36.21-21.15-72.4-31.56-108.65-1.55-5.41-2.53-11.09-1.08-16.75,1.58-6.16,5.49-9.06,11.74-9.07q5.86,0,11.71-.07c.17,0,.34-.15.68-.31V77.84H107.43V90.49c7.62.79,11.74,6.13,14.09,12.17,5.61,14.42,10.5,29.13,15.48,43.79,2.44,7.19,4.48,14.53,6.59,21.83a5.3,5.3,0,0,1-.1,3.3q-13.27,30.9-26.68,61.73c-.11.26-.28.5-.6,1a14.8,14.8,0,0,1-.76-1.89Q100.53,169.89,85.66,107.3C84.1,100.72,87,94.5,93.08,90.89A1.89,1.89,0,0,0,94,89.63c.07-3.88,0-7.77,0-11.95H17.88c.75-1.37,1.2-2.25,1.71-3.11C41.26,37.64,73.28,14.73,114.69,4.81c7.74-1.85,15.77-2.49,23.67-3.7,1-.15,1.9-.35,2.85-.53Z" transform="translate(-0.97 -0.59)"/><path class="cls-1" d="M141.21,300.59c-5.58-.77-11.16-1.48-16.73-2.34-3-.46-5.9-1.18-9.14-1.84l38.27-93.46,33.48,93.38c-6.23,1.07-12.21,2.13-18.2,3.1-3,.48-6,.78-8.93,1.16Z" transform="translate(-0.97 -0.59)"/><path class="cls-1" d="M92.24,287A139.21,139.21,0,0,1,63.3,270.92,148,148,0,0,1,1.48,137.7c1.21-15.25,4.24-30.1,10.09-44.32.8-1.94,1.79-2.43,3.82-2.6A20.7,20.7,0,0,1,33.6,98.26a12,12,0,0,1,2.49,4.17Q64,193.59,91.72,284.78C91.89,285.33,92,285.91,92.24,287Z" transform="translate(-0.97 -0.59)"/><path class="cls-1" d="M212.16,287.35c8.64-20.69,17.06-40.73,25.36-60.81,13.75-33.23,27.06-66.64,38.1-100.89,5-15.54,7-31.38,4.06-47.7,9.73,13.63,21.7,45.79,20.42,78.7-1.1,28.33-9.26,54.28-25,77.74S238.42,275.36,212.16,287.35Z" transform="translate(-0.97 -0.59)"/></svg>